<svg width="16" height="16" viewBox="0 0 16 16" fill="none" xmlns="http://www.w3.org/2000/svg">
<path d="M2.51992 13.48C5.54722 16.5073 10.4528 16.5073 13.4801 13.48C16.5074 10.4527 16.5074 5.54717 13.4801 2.51987C10.4528 -0.507428 5.54722 -0.507428 2.51992 2.51987C-0.507378 5.54717 -0.507378 10.4527 2.51992 13.48ZM12.4194 3.58053C14.8611 6.02226 14.8611 9.97764 12.4194 12.4194C9.97769 14.8611 6.02231 14.8611 3.58058 12.4194C1.13885 9.97764 1.13885 6.02226 3.58058 3.58053C6.02231 1.1388 9.97769 1.1388 12.4194 3.58053ZM5.61351 11.2703L4.72963 10.3864C4.58379 10.2406 4.58379 10.0019 4.72963 9.85611L7.29289 7.29284L5.81239 5.81234C5.57595 5.5759 5.74389 5.17373 6.07755 5.17152H10.4528C10.6605 5.17152 10.8284 5.33946 10.8284 5.54717V9.9224C10.8284 10.2583 10.4241 10.424 10.1876 10.1876L8.70711 8.70706L6.14384 11.2703C5.998 11.4162 5.75936 11.4162 5.61351 11.2703Z" fill="#191919"/>
</svg>
