<svg width="20" height="18" viewBox="0 0 20 18" fill="none" xmlns="http://www.w3.org/2000/svg">
<path fill-rule="evenodd" clip-rule="evenodd" d="M15.9411 1.8716L14.1579 3.74317L13.8396 3.63767C12.1924 3.09149 10.1546 2.9064 8.35737 3.13969C5.28982 3.53783 2.96772 4.98436 1.43694 7.45062C0.760021 8.5412 0.199491 10.0448 0.0252546 11.2373C-0.0160069 11.5196 -0.0131127 11.5463 0.0824339 11.7653C0.548825 12.8346 1.67638 14.1474 2.79767 14.9265C2.98384 15.0558 3.15322 15.1773 3.17411 15.1965C3.19699 15.2175 2.85516 15.6063 2.31395 16.1747L1.41582 17.118L1.83595 17.559L2.25611 18L3.28808 16.9174L4.32004 15.8348L4.76731 16.0227C7.16227 17.0285 10.3407 17.2708 13.1768 16.6639C14.5085 16.3789 15.7156 15.893 16.7772 15.2146C18.1403 14.3436 19.3933 12.9673 19.9176 11.7653C20.0132 11.5462 20.016 11.5197 19.9747 11.2373C19.7169 9.47555 18.7602 7.42123 17.6092 6.15754C16.9747 5.46087 16.3241 4.90891 15.6719 4.51384L15.313 4.29644L16.9484 2.57952L18.5839 0.862589L18.1743 0.431315C17.9491 0.194086 17.7557 0 17.7445 0C17.7333 0 16.9218 0.842228 15.9411 1.8716ZM11.584 4.37234C12.1115 4.44673 12.9313 4.62045 13.0986 4.69327L13.209 4.7413L12.5905 5.38899L11.972 6.03669L11.5824 5.98685C11.0466 5.91834 9.01208 5.91772 8.39648 5.98591C6.12178 6.23791 4.15672 6.95018 2.6848 8.05628C2.30402 8.3424 2.27477 8.36074 2.31568 8.28825C3.31522 6.51586 5.06291 5.18091 7.09031 4.64114C7.65925 4.48967 8.35733 4.36331 8.90491 4.31262C9.48617 4.25884 11.0217 4.29308 11.584 4.37234ZM15.2698 5.69268C16.2116 6.32141 17.1347 7.31368 17.6843 8.28825C17.725 8.36038 17.7021 8.34601 17.2941 8.04289C16.3663 7.35374 15.1995 6.7902 13.9781 6.44119C13.7369 6.37227 13.5141 6.30717 13.4831 6.29653C13.4456 6.28368 13.5959 6.09912 13.9295 5.74823L14.4323 5.21925L14.7384 5.38078C14.9068 5.46962 15.1459 5.60997 15.2698 5.69268ZM10.352 7.18576C10.4488 7.20834 10.5779 7.24775 10.639 7.27332L10.7499 7.31983L9.58375 8.54432C8.44517 9.73987 8.41646 9.76647 8.36836 9.67008C8.34125 9.61581 8.29772 9.44057 8.2716 9.28072C8.11954 8.34983 8.69931 7.43482 9.58934 7.20108C9.83109 7.13761 10.1204 7.13178 10.352 7.18576ZM7.49694 7.37394C7.49694 7.38822 7.46272 7.45801 7.42087 7.52907C7.27464 7.77742 7.10654 8.39203 7.08124 8.77084C7.04193 9.35987 7.13881 9.84681 7.40589 10.4023L7.54215 10.6857L7.13877 11.1106C6.91685 11.3443 6.719 11.5298 6.69901 11.5228C6.60679 11.4905 6.24685 10.7706 6.11756 10.3598C5.8915 9.64168 5.84108 9.0226 5.95083 8.31268C6.05083 7.66593 6.01559 7.70739 6.58958 7.56088C7.02793 7.44898 7.37847 7.36577 7.46761 7.35239C7.48372 7.34996 7.49694 7.35965 7.49694 7.37394ZM12.7768 7.40904C12.8521 7.4234 13.1376 7.49204 13.4112 7.56162C13.9838 7.70718 13.94 7.65579 14.0468 8.30779C14.2658 9.64377 13.8316 11.0488 12.8966 12.0302C11.9843 12.9877 10.7044 13.4399 9.42594 13.2564C8.97304 13.1913 8.32256 12.951 7.93447 12.7053C7.74998 12.5884 7.59358 12.4757 7.58693 12.4547C7.58024 12.4338 7.75698 12.2261 7.9796 11.9932L8.38439 11.5698L8.65441 11.7128C9.46446 12.1418 10.289 12.1799 11.127 11.827C11.7918 11.547 12.432 10.8708 12.7086 10.1564C12.8743 9.72813 12.9139 9.4923 12.911 8.94895C12.9085 8.48213 12.8969 8.40077 12.7818 8.04704C12.7122 7.83321 12.621 7.60012 12.5791 7.52907C12.4853 7.36967 12.4838 7.33675 12.5715 7.36269C12.6091 7.37382 12.7016 7.39467 12.7768 7.40904ZM11.7284 8.69929C11.889 9.68215 11.2352 10.6316 10.2794 10.8037C9.98514 10.8566 9.5798 10.8143 9.35582 10.7072C9.25292 10.658 9.25792 10.652 10.4174 9.4345C11.5549 8.2401 11.5835 8.21354 11.6316 8.30992C11.6588 8.36419 11.7023 8.53944 11.7284 8.69929ZM16.1336 8.72305C17.147 9.35978 17.9423 10.1437 18.5545 11.1093L18.7725 11.453L18.5545 11.7967C17.4802 13.4912 15.6701 14.7468 13.4577 15.3323C11.4318 15.8685 8.91489 15.8992 6.8497 15.4131C6.40948 15.3094 5.38048 14.98 5.2786 14.9101C5.24622 14.8879 5.46731 14.6295 5.9687 14.1038L6.70648 13.3303L7.06575 13.5825C7.672 14.0082 8.26319 14.2655 9.02713 14.4362C9.26606 14.4896 9.52931 14.5094 10 14.5094C10.6892 14.5094 11.0078 14.46 11.6135 14.2592C13.1906 13.7363 14.522 12.3388 15.0202 10.6835C15.2161 10.0327 15.2596 9.71655 15.26 8.94329L15.2603 8.21924L15.4883 8.34001C15.6137 8.40643 15.9041 8.5788 16.1336 8.72305ZM4.74024 8.95922C4.74087 9.71528 4.78589 10.0392 4.9798 10.6835C5.12662 11.1713 5.31849 11.5868 5.60693 12.0415L5.86459 12.4477L4.96967 13.3863L4.07478 14.3248L3.78145 14.133C2.81828 13.5032 2.05813 12.7485 1.48896 11.8569L1.2358 11.4602L1.36271 11.2411C1.85848 10.3852 2.61143 9.59476 3.56635 8.92785C3.93226 8.67228 4.6492 8.2511 4.7183 8.2511C4.73004 8.2511 4.73993 8.56973 4.74024 8.95922Z" fill="#191919"/>
</svg>
