<svg width="18" height="20" viewBox="0 0 18 20" fill="none" xmlns="http://www.w3.org/2000/svg">
<path fill-rule="evenodd" clip-rule="evenodd" d="M6.91365 0.0459155C5.49922 0.225815 4.27494 0.70173 3.17176 1.50055C0.703847 3.28767 -0.458975 6.2701 0.166962 9.20743C0.454122 10.5551 1.27327 12.0526 2.21087 12.944L2.41484 13.138V16.569V20H7.23499H12.0551V18.2413V16.4825H13.8828H15.7104V15.056V13.6295H16.8552C17.4848 13.6295 18 13.62 18 13.6084C18 13.5969 17.4749 12.3795 16.8331 10.9032L15.6662 8.21902L15.692 7.9246C15.7219 7.58399 15.6576 6.71572 15.5689 6.26205C15.1659 4.19963 13.9681 2.43483 12.1752 1.26167C11.5334 0.841765 10.5601 0.421231 9.78377 0.228512C8.9404 0.0191045 7.73006 -0.0578892 6.91365 0.0459155ZM8.55206 1.20321C12.0605 1.57461 14.6817 4.57928 14.4828 8.00148L14.4567 8.45094L15.3083 10.4051C15.7767 11.4799 16.1692 12.3813 16.1805 12.4081C16.1965 12.4463 16.0157 12.457 15.3532 12.457H14.5054V13.8835V15.31H12.6777H10.8501V17.0688V18.8275H7.23499H3.61988V15.7412V12.6549L3.16799 12.2133C2.61142 11.6694 2.25216 11.1848 1.91443 10.5223C1.43518 9.58235 1.25579 8.88871 1.22209 7.84515C1.19679 7.0611 1.25523 6.55541 1.44864 5.88536C2.32338 2.85486 5.34429 0.863652 8.55206 1.20321ZM7.27516 2.35839C6.05803 2.50417 4.94879 3.00994 4.09997 3.8061C3.30701 4.54989 2.83865 5.33003 2.56688 6.35972C2.41219 6.94577 2.37082 7.78879 2.46975 8.33955C2.83789 10.3896 4.74169 11.86 6.87344 11.7407C8.96057 11.6239 10.625 10.0721 10.8507 8.03271C10.9952 6.7269 10.3422 5.5362 9.18314 4.99181C8.68702 4.75879 8.4187 4.70111 7.83751 4.70247C6.96145 4.70458 6.33664 4.95241 5.72388 5.54089C5.13606 6.1054 4.82492 6.80921 4.82492 7.57434C4.82492 8.31078 5.17964 8.89496 5.8157 9.20594C6.95932 9.76507 8.27414 9.0731 8.45698 7.81584L8.48116 7.64973L7.8882 7.64989L7.29524 7.65001L7.19482 7.85363C7.07308 8.10044 6.94181 8.19901 6.69931 8.22558C6.46481 8.2513 6.19288 8.10872 6.09543 7.90897C6.00822 7.73017 6.01264 7.39823 6.10607 7.10613C6.50486 5.8593 8.11041 5.44283 9.07629 6.33564C9.49279 6.72065 9.65708 7.09792 9.657 7.66927C9.6568 8.98008 8.73161 10.1337 7.39566 10.4889C7.06906 10.5758 6.2702 10.5856 5.95251 10.5067C4.55904 10.1607 3.61988 9.00209 3.61988 7.62906C3.61988 5.26058 5.65587 3.38408 8.07848 3.5197C10.1493 3.63562 11.8218 5.18195 12.0524 7.19379C12.076 7.39987 12.0953 7.58724 12.0953 7.61014C12.0953 7.63828 12.2881 7.64829 12.6878 7.64102L13.2803 7.63019L13.2684 7.33707C13.1727 4.96707 11.3153 2.89465 8.87091 2.43069C8.54897 2.3696 7.55694 2.32466 7.27516 2.35839Z" fill="#191919"/>
</svg>
