<svg width="9" height="20" viewBox="0 0 9 20" fill="none" xmlns="http://www.w3.org/2000/svg">
<path fill-rule="evenodd" clip-rule="evenodd" d="M0 8.67357L4.38618e-05 10.0493L0.000131063 11.4251L0.436814 12.083L0.873498 12.741L0.873585 16.3705L0.873629 20H2.83929H4.80496V15.3236C4.80496 10.8905 4.80894 10.6485 4.8814 10.6704C4.92343 10.6831 5.33132 10.8472 5.78779 11.0351C6.59464 11.3672 6.62809 11.3768 6.98903 11.379C7.19325 11.3803 7.43406 11.3656 7.52413 11.3464L7.68794 11.3115V15.6558V20H8.34399H9L8.98829 14.4625L8.97654 8.92503L8.83742 8.63015C8.69895 8.33667 8.39868 7.97118 8.14974 7.79323C8.07793 7.74187 7.30088 7.40024 6.42297 7.03404L4.8268 6.36822L4.79889 5.76057C4.7812 5.37538 4.7452 5.08269 4.70061 4.96102C4.6619 4.85549 4.63028 4.74694 4.63032 4.71979C4.63041 4.69268 4.73835 4.61386 4.87027 4.54465C5.38824 4.27288 5.84559 3.71027 6.03372 3.11341C6.15092 2.74155 6.15961 2.14197 6.05312 1.77564C5.75075 0.735515 4.7936 0.00364576 3.73083 5.27274e-06C3.4369 -0.00100354 2.88804 0.142905 2.608 0.294358C2.06168 0.589852 1.57952 1.21023 1.42087 1.82178C1.32403 2.19522 1.33468 2.73397 1.44612 3.09626C1.50059 3.27333 1.52055 3.40127 1.495 3.40982C1.35989 3.45505 0.912113 3.75883 0.748001 3.91655C0.515092 4.14047 0.235093 4.56048 0.1673 4.78773C0.139737 4.88005 0.085296 4.88215 0.0826017 4.95558C3.63231e-05 7.20596 0 8.67357 0 8.67357ZM4.22142 1.43866C4.62001 1.64283 4.89281 2.14763 4.82514 2.5558C4.70301 3.29215 3.94968 3.70992 3.2955 3.40404C2.3823 2.97705 2.48093 1.67274 3.45057 1.35348C3.62442 1.29619 4.03106 1.34115 4.22142 1.43866ZM2.77395 4.63347C3.05045 4.72808 3.32796 5.00673 3.42218 5.28437C3.47993 5.45455 3.49452 5.67272 3.49452 6.36638V7.23519L3.65832 7.30479C3.74844 7.34308 4.60839 7.70055 5.56939 8.09917C6.53038 8.49782 7.36181 8.8527 7.41703 8.88784C7.68829 9.06047 7.77373 9.5068 7.58878 9.7848C7.45534 9.98538 7.23217 10.097 7.01088 10.0738C6.91478 10.0638 5.61744 9.54729 4.1279 8.92604C2.63836 8.30479 1.3951 7.78679 1.36504 7.7749C1.32333 7.75841 1.31044 7.48699 1.31044 6.62543C1.31044 5.32402 1.33543 5.19134 1.6377 4.88786C1.94107 4.5832 2.35574 4.49039 2.77395 4.63347ZM2.42961 9.64365L3.47268 10.0771L3.48382 14.3807L3.49495 18.6842H2.83951H2.18407L2.18403 15.5152L2.18394 12.3462L1.74726 11.6883L1.31057 11.0304L1.31049 10.1202C1.31049 9.61966 1.32757 9.21013 1.34849 9.21013C1.36941 9.21013 1.85594 9.40522 2.42961 9.64365Z" fill="#191919"/>
</svg>
