<svg width="18" height="20" viewBox="0 0 18 20" fill="none" xmlns="http://www.w3.org/2000/svg">
<path fill-rule="evenodd" clip-rule="evenodd" d="M9.74984 0.0606872C9.06358 0.199502 8.36983 0.660655 7.97677 1.23925C7.73551 1.59437 7.62476 1.87145 7.54392 2.32206C7.49014 2.62173 7.4884 2.72584 7.53213 3.02551C7.56034 3.21896 7.58618 3.41823 7.58956 3.46829C7.59505 3.54923 7.37537 3.67941 5.61436 4.63865L3.63299 5.71794V7.73423V9.75053L3.2674 9.89938C3.06629 9.98122 2.71135 10.1692 2.47859 10.317C1.20173 11.1278 0.365327 12.342 0.0711893 13.8118C-0.0250953 14.2928 -0.0234696 15.1719 0.0746033 15.6681C0.45015 17.5684 1.85447 19.1251 3.7374 19.7283C4.37811 19.9336 4.72374 19.9849 5.46195 19.9842C5.93224 19.9837 6.23796 19.9633 6.48544 19.9159C8.71941 19.4878 10.4313 17.8378 10.8723 15.6877C10.9327 15.3933 10.9499 14.2581 10.8988 13.9388L10.8691 13.7532H11.3462H11.8234L12.6492 14.5479L13.4749 15.3426L13.2788 15.4129C12.44 15.7134 11.837 16.422 11.6914 17.2781C11.6345 17.613 11.6345 17.6844 11.691 18.0066C12.0261 19.9177 14.4115 20.6665 15.8307 19.3062C16.3322 18.8255 16.5576 18.3094 16.5576 17.6417C16.5576 17.2532 16.4883 16.9396 16.3341 16.6307L16.2341 16.4302L17.1171 15.5801L18 14.73L15.6634 12.4829L13.3268 10.2359H12.1378H10.9488V7.82099V5.40611L11.1409 5.35672C12.0943 5.11152 12.9065 4.27086 13.1253 3.30287C13.2169 2.89772 13.1886 2.27575 13.0619 1.91171C12.5885 0.550564 11.1905 -0.230777 9.74984 0.0606872ZM10.7611 1.22822C11.2228 1.34386 11.6276 1.67167 11.8357 2.09859C11.9324 2.29701 11.9445 2.36805 11.9438 2.7324C11.9431 3.09304 11.9299 3.16964 11.8355 3.36465C11.6325 3.78415 11.2174 4.12231 10.7672 4.23506C10.4427 4.31631 10.1974 4.31134 9.87982 4.217C9.38946 4.07139 9.01428 3.73666 8.82894 3.27953C8.70774 2.98064 8.70774 2.48416 8.82894 2.18527C9.13296 1.43539 9.95749 1.02696 10.7611 1.22822ZM8.45819 4.76566C8.72319 4.99854 9.15088 5.23381 9.48733 5.33174L9.72952 5.40228V7.81908V10.2359L9.04874 10.2353L8.36796 10.2347L7.88414 10.0008C7.61805 9.87218 7.37573 9.76694 7.34561 9.76694C7.30123 9.76694 7.29091 9.58271 7.29091 8.78992V7.8129H6.68126H6.0716V9.57279C6.0716 11.5128 6.07136 11.515 5.82217 11.6858C5.7202 11.7558 5.63204 11.7796 5.47508 11.7796C5.24776 11.7796 5.10977 11.708 4.95642 11.5105C4.87384 11.4042 4.87262 11.3667 4.87262 8.89802V6.39345L6.539 5.48271C7.45552 4.98177 8.21197 4.57135 8.22002 4.57057C8.22807 4.56982 8.33525 4.6576 8.45819 4.76566ZM7.82423 11.3119C7.9723 11.4035 8.22445 11.5973 8.38463 11.7426C10.3258 13.5035 10.1455 16.4914 8.00567 18.0219C5.86546 19.5526 2.80609 18.8252 1.6406 16.5084C1.0548 15.344 1.06179 14.0732 1.66035 12.9129C2.03472 12.1873 2.57219 11.6238 3.26634 11.2293C3.43355 11.1343 3.58035 11.0566 3.59267 11.0566C3.60494 11.0566 3.63673 11.2101 3.66335 11.3977C3.69501 11.621 3.7524 11.8177 3.82946 11.9672L3.9472 12.1956L3.77991 12.2971C3.33499 12.567 2.85836 13.1351 2.64324 13.6518C2.53224 13.9184 2.41368 14.4754 2.41368 14.7302C2.41368 14.8105 2.44124 15.0281 2.47489 15.2137C2.67782 16.3326 3.48883 17.2039 4.64908 17.5493C5.04543 17.6673 5.82518 17.6775 6.23418 17.5699C8.67108 16.9289 9.32057 13.9239 7.34492 12.4308L7.01087 12.1784L7.08546 12.0376C7.20824 11.8057 7.29091 11.4865 7.29091 11.2439V11.0155L7.423 11.0804C7.49563 11.1161 7.67621 11.2203 7.82423 11.3119ZM14.5658 13.069L16.2926 14.7297L15.8667 15.1405L15.4409 15.5514L13.8958 14.0661L12.3506 12.5808H11.4133H10.4761L10.3568 12.3399C10.2912 12.2074 10.1324 11.9505 10.0039 11.7691C9.87531 11.5876 9.77017 11.4322 9.77017 11.4238C9.77017 11.4153 10.4607 11.4083 11.3046 11.4083H12.8391L14.5658 13.069ZM5.93097 13.0322C6.22914 13.1069 6.4769 13.2435 6.73491 13.4755C7.47616 14.1423 7.47616 15.3181 6.73491 15.9848C6.12509 16.5333 5.35286 16.6366 4.601 16.2703C3.95797 15.9569 3.54882 15.1635 3.67083 14.4664C3.85161 13.4334 4.8933 12.7724 5.93097 13.0322ZM14.6391 16.5625C15.0843 16.7819 15.3072 17.1129 15.3315 17.5903C15.3444 17.8457 15.3318 17.922 15.247 18.1002C15.1088 18.3903 14.926 18.577 14.6548 18.7051C14.4586 18.7978 14.375 18.8138 14.0987 18.812C13.71 18.8095 13.4534 18.7026 13.2076 18.4409C12.8725 18.0843 12.784 17.5891 12.9789 17.1622C13.0976 16.9024 13.4279 16.6052 13.6975 16.5156C13.9685 16.4256 14.4054 16.4474 14.6391 16.5625Z" fill="#191919"/>
</svg>
