<svg width="15" height="22" viewBox="0 0 15 22" fill="none" xmlns="http://www.w3.org/2000/svg">
<path fill-rule="evenodd" clip-rule="evenodd" d="M6.66105 0.0251797C3.71921 0.382786 1.30717 2.26998 0.386334 4.93453C0.00138889 6.04847 0.00080645 6.05941 0.000358422 11.8348L0 16.8619H0.890411H1.78082L1.80363 17.6047C1.82217 18.2099 1.84713 18.4233 1.93835 18.757C2.15676 19.5559 2.57146 20.2369 3.17934 20.7951C3.78736 21.3533 4.39654 21.6843 5.19663 21.8909C5.5684 21.9869 5.71128 22.0008 6.31719 22C6.91607 21.9991 7.07028 21.9839 7.43776 21.8899C8.69196 21.569 9.68883 20.8139 10.2814 19.7358C10.4992 19.3397 14.4876 9.84724 14.6646 9.30379C15.2462 7.51812 15.067 5.59161 14.1612 3.89108C13.1051 1.90859 11.0957 0.48264 8.80375 0.0892518C8.33282 0.00842967 7.10173 -0.0283859 6.66105 0.0251797ZM8.7593 1.39872C10.4618 1.75293 11.9164 2.75655 12.7933 4.18211C13.7023 5.65986 13.9041 7.46654 13.3368 9.04965C13.1728 9.5072 9.28143 18.7846 9.13874 19.0582C8.83569 19.6392 8.32243 20.132 7.72951 20.4111C7.22351 20.6494 6.91069 20.7138 6.27239 20.7115C5.78296 20.7096 5.66715 20.6945 5.35393 20.5916C4.35371 20.2631 3.62602 19.5633 3.28893 18.6058C3.1827 18.3041 3.165 18.1753 3.14632 17.5684L3.12495 16.8755L3.58978 16.849C5.53955 16.7381 7.28292 15.4468 7.91105 13.6484C8.08686 13.1451 8.15411 12.7308 8.15411 12.1511C8.15411 11.5845 8.11316 11.2889 7.96777 10.8061L7.87516 10.4987L8.02861 10.2464C8.42386 9.5962 8.60213 8.96379 8.60213 8.21168C8.60213 7.5133 8.45227 6.92886 8.12772 6.36134C7.62369 5.48005 6.73422 4.77233 5.79076 4.50183C5.68601 4.47182 5.60035 4.43543 5.60035 4.42096C5.60035 4.4065 5.7163 4.33437 5.85796 4.2607C7.3744 3.47237 9.29859 3.88841 10.2866 5.21825C10.5279 5.54309 10.77 6.02961 10.8738 6.39854C10.9786 6.77079 10.9787 7.60713 10.8741 7.9702C10.8331 8.1123 10.5172 8.90545 10.1721 9.73279C9.82691 10.5601 9.55151 11.2437 9.56011 11.252C9.5809 11.2719 10.7732 11.7319 10.7815 11.7232C10.8101 11.6931 12.0203 8.76856 12.0941 8.5515C12.533 7.26016 12.3064 5.79985 11.4801 4.59574C11.2395 4.24511 10.6186 3.64034 10.2457 3.39331C8.31679 2.11562 5.74663 2.34146 4.1073 3.93272C3.36079 4.65736 2.92029 5.48104 2.75412 6.46313C2.71805 6.67627 2.68844 6.97179 2.68835 7.11978L2.68817 7.3889H2.00923H1.33033L1.35981 6.88296C1.52948 3.97151 3.80125 1.6638 6.85483 1.30081C7.21688 1.25779 8.36567 1.31683 8.7593 1.39872ZM5.45353 5.75296C6.1977 6.00098 6.86132 6.63825 7.12472 7.35777C7.2645 7.73962 7.29595 8.44075 7.19165 8.84982C7.14891 9.01727 7.11065 9.15433 7.10653 9.15433C7.10245 9.15433 6.92629 8.99088 6.71513 8.79108C6.05778 8.16918 5.2374 7.72942 4.37329 7.53569L4.01984 7.45646L4.04748 7.02441C4.07764 6.55244 4.15716 6.21761 4.32638 5.84984L4.4361 5.61138L4.80541 5.63571C5.00855 5.6491 5.30017 5.70184 5.45353 5.75296ZM4.06612 8.78329C4.90967 8.99015 5.71885 9.51814 6.18041 10.1629C6.39927 10.4686 6.65711 11.0315 6.73807 11.3804C6.84143 11.8255 6.83296 12.5421 6.71939 12.9689C6.37821 14.2512 5.3111 15.237 3.97782 15.5016C3.715 15.5538 3.36016 15.5701 2.48844 15.5701H1.34408V12.1205V8.67082L2.56496 8.69269C3.47378 8.70901 3.85747 8.73213 4.06612 8.78329Z" fill="#191919"/>
</svg>
