<svg width="206" height="46" viewBox="0 0 206 46" fill="none" xmlns="http://www.w3.org/2000/svg">
<g clip-path="url(#clip0_201_2276)">
<g clip-path="url(#clip1_201_2276)">
<path d="M38.0592 42.2592L34.6079 41.3362C35.5293 37.9183 36.4459 34.5186 37.3712 31.092H33.894C34.3427 35.1045 33.2627 38.622 30.4619 41.5459C28.3769 43.7221 25.8 44.9839 22.7935 45.3056C16.2032 46.0112 11.5768 41.6732 10.1404 38.2266H10.8975C11.891 38.2266 12.8845 38.2381 13.8761 38.2189C14.0037 38.2115 14.1311 38.2359 14.2469 38.2899C14.3627 38.3439 14.4631 38.4258 14.5391 38.5282C16.9411 41.2788 19.962 42.3989 23.5286 41.5287C27.1096 40.6546 29.3618 38.2994 30.1919 34.7148C31.0182 31.1495 29.4646 27.4482 26.4063 25.4175C23.3316 23.3773 19.4326 23.407 16.3656 25.4912C16.1701 25.6164 15.9437 25.6854 15.7113 25.6904C14.2153 25.7076 12.7193 25.699 11.1416 25.699C11.2492 25.5401 11.3174 25.4242 11.3991 25.316C13.7426 22.3203 16.8086 20.6516 20.6144 20.3528C20.8066 20.3375 20.9382 20.305 21.0275 20.0982C21.949 17.9747 22.8829 15.8569 23.8139 13.7372C23.836 13.6845 23.8485 13.6281 23.8841 13.5151C23.4363 13.5658 23.027 13.6108 22.6177 13.6587C21.8558 13.7439 21.0929 13.8138 20.3358 13.9249C20.133 13.9608 19.9492 14.0661 19.8159 14.2226C18.5111 15.9009 17.2217 17.5927 15.9304 19.2806C15.8516 19.384 15.7709 19.4854 15.6652 19.6195L12.8192 17.4567C12.9086 17.3303 12.9729 17.2336 13.044 17.1408C14.4071 15.3574 15.7718 13.5741 17.1381 11.7908C17.7761 10.9598 18.6303 10.506 19.668 10.3863L25.946 9.67111C26.7364 9.57142 27.5381 9.72322 28.2366 10.1048C29.2349 10.6457 30.2448 11.1685 31.2402 11.7152C32.4552 12.3691 33.369 13.4662 33.7901 14.7766C34.2112 16.087 34.1069 17.5089 33.4991 18.7444C32.6343 20.552 31.7696 22.3615 30.8933 24.1643C30.7819 24.3931 30.8241 24.5252 30.9663 24.7263C31.5332 25.5209 32.0828 26.3299 32.5998 27.1561C32.7439 27.385 32.8601 27.4951 33.1445 27.4922C34.5685 27.4759 35.9934 27.4817 37.4183 27.4855C39.3842 27.4903 40.7908 28.6564 41.1454 30.5769C41.1644 30.6931 41.1579 30.812 41.1261 30.9254C40.1371 34.6229 39.143 38.3195 38.1437 42.015C38.1255 42.0821 38.0976 42.1472 38.0592 42.2592ZM27.9272 22.0379C27.9369 22.0206 27.9714 21.9728 27.9964 21.9211C28.7718 20.3079 29.552 18.6965 30.3187 17.0795C30.4818 16.7221 30.5134 16.3189 30.408 15.9406C30.3025 15.5623 30.0669 15.233 29.7423 15.0105C29.0966 14.5893 28.3971 14.2523 27.6851 13.8617L24.6941 20.665L27.9272 22.0379Z" fill="#191919"/>
<path d="M23.2077 32.8833V36.4037H-0.103882V32.8833H23.2077Z" fill="#FDB819"/>
<path d="M41.1799 5.99548C41.1828 7.05691 40.8698 8.09536 40.2805 8.97957C39.6912 9.86378 38.852 10.5541 37.8691 10.9632C36.8862 11.3723 35.8036 11.4819 34.7582 11.2781C33.7128 11.0743 32.7515 10.5662 31.9957 9.81816C31.24 9.07009 30.7238 8.11558 30.5124 7.07526C30.301 6.03494 30.4038 4.95552 30.8079 3.97343C31.212 2.99133 31.8992 2.15064 32.7827 1.55762C33.6662 0.964596 34.7062 0.645857 35.7714 0.641688C37.201 0.637618 38.5736 1.19924 39.5878 2.20314C40.6019 3.20703 41.1746 4.57106 41.1799 5.99548ZM35.8099 7.79636C36.1645 7.79295 36.5101 7.68495 36.8032 7.48599C37.0962 7.28704 37.3236 7.00604 37.4565 6.67846C37.5894 6.35089 37.622 5.99141 37.5501 5.6454C37.4782 5.2994 37.3051 4.98236 37.0525 4.73432C36.8 4.48627 36.4793 4.31833 36.1311 4.25168C35.7828 4.18504 35.4226 4.22268 35.0958 4.35985C34.769 4.49702 34.4903 4.72758 34.2949 5.02243C34.0995 5.31728 33.9961 5.6632 33.9978 6.01655C33.999 6.2521 34.0469 6.48509 34.1388 6.70215C34.2306 6.91921 34.3645 7.11606 34.5329 7.28142C34.7013 7.44678 34.9007 7.57739 35.1199 7.66575C35.339 7.75412 35.5735 7.7985 35.8099 7.79636Z" fill="#191919"/>
<path d="M5.29013 27.4951H17.8011V31.0375H5.29013V27.4951Z" fill="#FDB819"/>
</g>
<path d="M74.0719 32L69.9871 24.962H66.2335V32H63.0595V12.68H70.7875C72.5171 12.68 73.9799 13.2872 75.1759 14.5016C76.3903 15.6976 76.9975 17.1604 76.9975 18.89C76.9975 20.1228 76.6387 21.2544 75.9211 22.2848C75.2219 23.2968 74.3019 24.0328 73.1611 24.4928L77.5495 32H74.0719ZM66.2335 15.6608V22.1192H70.7875C71.6339 22.1192 72.3515 21.8064 72.9403 21.1808C73.5291 20.5552 73.8235 19.7916 73.8235 18.89C73.8235 17.9884 73.5291 17.2248 72.9403 16.5992C72.3515 15.9736 71.6339 15.6608 70.7875 15.6608H66.2335ZM88.8245 18.2H91.8053V32H88.8245V30.2336C87.9229 31.6504 86.4969 32.3588 84.5465 32.3588C82.9641 32.3588 81.6853 31.8528 80.7101 30.8408C79.7349 29.8288 79.2473 28.4396 79.2473 26.6732V18.2H82.2281V26.3696C82.2281 27.4 82.5041 28.1912 83.0561 28.7432C83.6081 29.2952 84.3625 29.5712 85.3193 29.5712C86.3681 29.5712 87.2145 29.2492 87.8585 28.6052C88.5025 27.9428 88.8245 26.94 88.8245 25.5968V18.2ZM97.8873 22.0088C97.8873 22.4688 98.1357 22.8368 98.6325 23.1128C99.1477 23.3704 99.7641 23.6004 100.482 23.8028C101.218 23.9868 101.954 24.2076 102.69 24.4652C103.426 24.7228 104.042 25.1644 104.539 25.79C105.054 26.3972 105.312 27.17 105.312 28.1084C105.312 29.4332 104.796 30.4728 103.766 31.2272C102.754 31.9816 101.475 32.3588 99.9297 32.3588C98.5681 32.3588 97.3997 32.0736 96.4245 31.5032C95.4493 30.9328 94.7409 30.1416 94.2993 29.1296L96.8661 27.6392C97.3445 28.964 98.3657 29.6264 99.9297 29.6264C101.494 29.6264 102.276 29.1112 102.276 28.0808C102.276 27.6392 102.018 27.2804 101.503 27.0044C101.006 26.7284 100.39 26.4984 99.6537 26.3144C98.9361 26.112 98.2093 25.882 97.4733 25.6244C96.7373 25.3668 96.1117 24.9436 95.5965 24.3548C95.0997 23.7476 94.8513 22.984 94.8513 22.064C94.8513 20.7944 95.3297 19.7732 96.2865 19.0004C97.2617 18.2276 98.4669 17.8412 99.9021 17.8412C101.043 17.8412 102.055 18.0988 102.938 18.614C103.84 19.1108 104.53 19.81 105.008 20.7116L102.496 22.1192C102.018 21.0704 101.153 20.546 99.9021 20.546C99.3317 20.546 98.8533 20.6748 98.4669 20.9324C98.0805 21.1716 97.8873 21.5304 97.8873 22.0088ZM126.617 12.68V32H123.443V18.2276L117.564 27.9428H117.178L111.299 18.2V32H108.125V12.68H111.548L117.371 22.34L123.222 12.68H126.617ZM132.622 26.3696C132.843 27.4184 133.349 28.228 134.14 28.7984C134.931 29.3504 135.897 29.6264 137.038 29.6264C138.62 29.6264 139.807 29.056 140.598 27.9152L143.055 29.3504C141.693 31.356 139.678 32.3588 137.01 32.3588C134.766 32.3588 132.953 31.678 131.573 30.3164C130.193 28.9364 129.503 27.1976 129.503 25.1C129.503 23.0392 130.184 21.3188 131.546 19.9388C132.907 18.5404 134.655 17.8412 136.79 17.8412C138.814 17.8412 140.47 18.5496 141.758 19.9664C143.064 21.3832 143.717 23.1036 143.717 25.1276C143.717 25.4404 143.68 25.8544 143.607 26.3696H132.622ZM132.594 23.9408H140.709C140.506 22.8184 140.037 21.972 139.301 21.4016C138.584 20.8312 137.737 20.546 136.762 20.546C135.658 20.546 134.738 20.8496 134.002 21.4568C133.266 22.064 132.797 22.892 132.594 23.9408ZM157.189 12.68H160.17V32H157.189V30.0128C156.066 31.5768 154.456 32.3588 152.359 32.3588C150.464 32.3588 148.844 31.6596 147.501 30.2612C146.158 28.8444 145.486 27.124 145.486 25.1C145.486 23.0576 146.158 21.3372 147.501 19.9388C148.844 18.5404 150.464 17.8412 152.359 17.8412C154.456 17.8412 156.066 18.614 157.189 20.1596V12.68ZM149.709 28.274C150.537 29.102 151.577 29.516 152.828 29.516C154.079 29.516 155.119 29.102 155.947 28.274C156.775 27.4276 157.189 26.3696 157.189 25.1C157.189 23.8304 156.775 22.7816 155.947 21.9536C155.119 21.1072 154.079 20.684 152.828 20.684C151.577 20.684 150.537 21.1072 149.709 21.9536C148.881 22.7816 148.467 23.8304 148.467 25.1C148.467 26.3696 148.881 27.4276 149.709 28.274ZM166.459 15.578C166.091 15.946 165.65 16.13 165.134 16.13C164.619 16.13 164.168 15.946 163.782 15.578C163.414 15.1916 163.23 14.7408 163.23 14.2256C163.23 13.7104 163.414 13.2688 163.782 12.9008C164.15 12.5144 164.601 12.3212 165.134 12.3212C165.668 12.3212 166.119 12.5144 166.487 12.9008C166.855 13.2688 167.039 13.7104 167.039 14.2256C167.039 14.7408 166.846 15.1916 166.459 15.578ZM163.644 32V18.2H166.625V32H163.644ZM176.599 32.3588C174.52 32.3588 172.781 31.6596 171.383 30.2612C170.003 28.8628 169.313 27.1424 169.313 25.1C169.313 23.0392 170.003 21.3188 171.383 19.9388C172.781 18.5404 174.52 17.8412 176.599 17.8412C177.943 17.8412 179.166 18.1632 180.27 18.8072C181.374 19.4512 182.202 20.316 182.754 21.4016L180.187 22.892C179.875 22.2296 179.396 21.7144 178.752 21.3464C178.127 20.96 177.4 20.7668 176.572 20.7668C175.357 20.7668 174.336 21.1808 173.508 22.0088C172.699 22.8368 172.294 23.8672 172.294 25.1C172.294 26.3328 172.699 27.3632 173.508 28.1912C174.336 29.0192 175.357 29.4332 176.572 29.4332C177.381 29.4332 178.108 29.24 178.752 28.8536C179.415 28.4672 179.911 27.952 180.243 27.308L182.809 28.7708C182.221 29.8748 181.374 30.7488 180.27 31.3928C179.166 32.0368 177.943 32.3588 176.599 32.3588ZM195.678 18.2H198.659V32H195.678V30.0128C194.556 31.5768 192.946 32.3588 190.848 32.3588C188.953 32.3588 187.334 31.6596 185.99 30.2612C184.647 28.8444 183.976 27.124 183.976 25.1C183.976 23.0576 184.647 21.3372 185.99 19.9388C187.334 18.5404 188.953 17.8412 190.848 17.8412C192.946 17.8412 194.556 18.614 195.678 20.1596V18.2ZM188.198 28.274C189.026 29.102 190.066 29.516 191.317 29.516C192.568 29.516 193.608 29.102 194.436 28.274C195.264 27.4276 195.678 26.3696 195.678 25.1C195.678 23.8304 195.264 22.7816 194.436 21.9536C193.608 21.1072 192.568 20.684 191.317 20.684C190.066 20.684 189.026 21.1072 188.198 21.9536C187.37 22.7816 186.956 23.8304 186.956 25.1C186.956 26.3696 187.37 27.4276 188.198 28.274ZM202.133 32V11.852H205.114V32H202.133Z" fill="#191919"/>
</g>
<defs>
<clipPath id="clip0_201_2276">
<rect width="206" height="46" fill="white"/>
</clipPath>
<clipPath id="clip1_201_2276">
<rect width="41.409" height="46" fill="white"/>
</clipPath>
</defs>
</svg>
